<svg xmlns="http://www.w3.org/2000/svg" width="148" height="20" fill="none" viewBox="0 0 148 20"><path fill="#557976" d="m15.303.278-6.51 10.805v8.64H6.51v-7.779L0 .278h2.588l5.286 9.833L13.801.278h1.502ZM32.616 19.722h-2.42l-2.477-6.805h-7.902l-2.532 6.805h-1.363L23.128.278h2.42l7.068 19.444Zm-5.37-8.083-3.45-9.5-3.506 9.5h6.956ZM53.432 19.722h-3.2l-10.295-10.5L50.761.278h2.03L42.609 8.694l10.824 11.028Zm-14.08 0h-2.28V.278h2.28v19.444ZM73.488 10c0 5.889-3.06 10-8.681 10-5.648 0-8.709-4.111-8.709-10s3.06-10 8.709-10c5.62 0 8.681 4.111 8.681 10Zm-2.727 0c0-4.861-1.614-8.722-5.954-8.722-4.368 0-5.982 3.86-5.982 8.722 0 4.861 1.614 8.722 5.982 8.722 4.34 0 5.954-3.86 5.954-8.722ZM93.477.278 85.88 19.722h-1.503L76.782.278h2.449l6.427 16.5 6.456-16.5h1.363ZM109.055 19.722h-11.13V.278h2.282v18.166h8.848v1.278ZM127.684 19.722h-13.912V.278h13.244v1.278h-10.962V9.36h8.848v1.278h-8.848v7.805h11.63v1.278ZM148 .278l-7.596 19.444h-1.502L131.306.278h2.448l6.427 16.5 6.456-16.5H148Z"/></svg>