<svg width="100" height="100" viewBox="0 0 100 100" fill="none" xmlns="http://www.w3.org/2000/svg">
<path d="M97.6915 1.07715C97.0761 1.07715 96.4607 1.53869 96.4607 2.30792V26.9233C96.4607 27.5387 96.9222 28.1541 97.6915 28.1541C98.4607 28.1541 98.9222 27.6925 98.9222 26.9233V2.30792C98.9222 1.53869 98.3068 1.07715 97.6915 1.07715Z" fill="#557976"/>
<path d="M97.6917 31.8467C97.0763 31.8467 96.4609 32.3082 96.4609 33.0774V36.1544C96.4609 36.7698 96.9225 37.3851 97.6917 37.3851C98.4609 37.3851 98.9225 36.9236 98.9225 36.1544V33.0774C98.9225 32.3082 98.3071 31.8467 97.6917 31.8467Z" fill="#557976"/>
<path d="M26.9214 14.3082C27.5368 14.3082 28.1522 13.8467 28.1522 13.0774C28.1522 12.3082 27.6907 11.8467 26.9214 11.8467H9.99835C9.38296 11.8467 8.76758 12.3082 8.76758 13.0774C8.76758 13.8467 9.22912 14.3082 9.99835 14.3082H26.9214Z" fill="#557976"/>
<path d="M3.8454 12.0002H2.30694C1.69156 12.0002 1.07617 12.4618 1.07617 13.231C1.07617 14.0002 1.53771 14.4618 2.30694 14.4618H3.8454C4.46079 14.4618 5.07617 14.0002 5.07617 13.231C5.07617 12.4618 4.46079 12.0002 3.8454 12.0002Z" fill="#557976"/>
<path d="M77.6923 93.5384H75.6923V91.5384C75.6923 90.923 75.2308 90.3076 74.4615 90.3076C73.6923 90.3076 73.2308 90.7692 73.2308 91.5384V93.5384H71.2308C70.6154 93.5384 70 93.9999 70 94.7692C70 95.5384 70.4615 95.9999 71.2308 95.9999H73.2308V97.9999C73.2308 98.6153 73.6923 99.2307 74.4615 99.2307C75.2308 99.2307 75.6923 98.7692 75.6923 97.9999V95.9999H77.6923C78.3077 95.9999 78.9231 95.5384 78.9231 94.7692C78.9231 93.9999 78.3077 93.5384 77.6923 93.5384Z" fill="#557976"/>
<path d="M79.2308 6.61561H81.2308V8.61561C81.2308 9.231 81.6923 9.84638 82.4615 9.84638C83.2308 9.84638 83.6923 9.38484 83.6923 8.61561V6.61561H85.6923C86.3077 6.61561 86.9231 6.15407 86.9231 5.38484C86.9231 4.61561 86.4615 4.15407 85.6923 4.15407H83.6923V2.30792C83.6923 1.69253 83.2308 1.07715 82.4615 1.07715C81.6923 1.07715 81.2308 1.53869 81.2308 2.30792V4.30792H79.2308C78.6154 4.30792 78 4.76946 78 5.53869C78 6.30792 78.6154 6.61561 79.2308 6.61561Z" fill="#557976"/>
<path d="M86.5193 26.6653C64.2548 26.3614 49.9201 6.60875 49.7676 6.45681C49.3102 5.84903 48.3952 5.84903 47.9377 6.45681C47.7852 6.60875 33.4505 26.3614 11.1861 26.6653C10.5761 26.6653 10.1186 27.1211 10.1186 27.7289C10.1186 28.1847 5.84871 73.3119 48.5477 91.849C48.7002 91.849 48.8527 92.001 49.0052 92.001C49.1577 92.001 49.3102 92.001 49.4627 91.849C92.0091 73.4639 87.8917 28.1847 87.8917 27.7289C87.5867 27.1211 87.1292 26.6653 86.5193 26.6653ZM48.8527 89.4179C11.7961 73.16 11.9486 35.478 12.2536 28.9444C32.0781 28.1847 45.3453 13.4462 48.8527 9.03985C52.3601 13.4462 65.6273 28.1847 85.4518 28.9444C85.7568 35.478 85.9093 73.16 48.8527 89.4179Z" fill="#557976"/>
<path d="M78.2945 34.5494C65.8462 32.0924 56.2822 24.8748 50.3617 19.3465C49.9063 18.8858 49.299 18.8858 48.8436 19.3465C43.0749 24.8748 33.3591 32.0924 20.9109 34.5494C20.3036 34.703 20 35.1637 20 35.7779C20.9109 47.756 25.7687 69.7158 48.9954 81.8474C49.1472 82.001 49.299 82.001 49.4508 82.001C49.6027 82.001 49.7545 82.001 49.9063 81.8474C73.2848 69.7158 78.1427 47.756 78.9017 35.7779C79.2053 35.1637 78.7499 34.703 78.2945 34.5494ZM49.6027 79.5439C28.3495 68.1801 23.4916 48.2167 22.4289 36.6993C34.4218 34.0887 43.6821 27.3319 49.6027 21.8035C55.5232 27.3319 64.9353 33.9352 76.7764 36.6993C75.8655 48.2167 70.8558 68.1801 49.6027 79.5439Z" fill="#557976"/>
<path d="M42.7692 40.3106V45.336H39.2308C38.6154 45.336 38 45.7929 38 46.5543V61.7827C38 62.3918 38.4615 63.001 39.2308 63.001H60.7692C61.3846 63.001 62 62.5441 62 61.7827V46.5543C62 45.9451 61.5385 45.336 60.7692 45.336H57.2308V40.3106C57.2308 36.3512 54 33.001 49.8462 33.001C45.6923 33.001 42.7692 36.3512 42.7692 40.3106ZM59.6923 60.5644H40.4615V47.6203H44H56.3077H59.8462V60.5644H59.6923ZM45.0769 40.3106C45.0769 37.5695 47.3846 35.2852 50.1538 35.2852C52.9231 35.2852 55.2308 37.5695 55.2308 40.3106V45.336H45.2308V40.3106H45.0769Z" fill="#557976"/>
<path d="M50 52.001C49.5 52.001 49 52.4176 49 53.1121V55.8899C49 56.4454 49.375 57.001 50 57.001C50.625 57.001 51 56.5843 51 55.8899V53.1121C51 52.4176 50.5 52.001 50 52.001Z" fill="#557976"/>
</svg>
