<svg width="100" height="100" viewBox="0 0 100 100" fill="none" xmlns="http://www.w3.org/2000/svg">
<g clip-path="url(#clip0_61_627)">
<path fill-rule="evenodd" clip-rule="evenodd" d="M64.2092 16.1775L55.9188 35.6238L41.9004 42.689C41.8626 42.7082 41.826 42.729 41.7908 42.7517C39.8009 44.0456 38.1987 45.5848 36.996 47.3731C34.5558 47.7681 33.138 49.0933 31.8213 50.9422C30.0851 53.3793 28.5416 56.871 23.9249 59.8083L2.77908 62.414C2.14416 62.4922 1.69108 63.0704 1.76821 63.7051L5.76484 96.6877C5.84183 97.3222 6.4193 97.7732 7.05436 97.6952L23.5615 95.6604C24.1965 95.5824 24.6495 95.004 24.5725 94.3695L24.0487 90.0598L27.7944 89.5982C28.4313 89.5188 28.8826 88.942 28.8054 88.3073L28.3177 84.2691L32.578 84.3024L34.6282 89.3943C35.5389 91.6534 38.1144 92.7457 40.3782 91.831C41.2886 91.4632 42.0107 90.8258 42.4886 90.0491C43.7034 91.154 45.4925 91.5332 47.1197 90.8758C47.9722 90.5313 48.659 89.9512 49.1368 89.24C50.1971 91.1693 52.5619 92.0434 54.6568 91.1976C55.5627 90.8314 56.2825 90.1987 56.7613 89.4271C57.9762 90.5745 59.7971 90.9766 61.449 90.3096C63.7126 89.3948 64.8121 86.8174 63.9014 84.5584L63.8298 84.3785L67.1425 84.3868C70.007 84.3937 72.3432 82.0749 72.3568 79.2119C72.3576 79.0972 72.3536 78.984 72.347 78.8711C74.5179 78.2534 76.1146 76.2596 76.1254 73.8943C76.128 73.5775 76.0993 73.2695 76.047 72.9686C77.8121 72.1434 79.0408 70.355 79.0504 68.2811C79.0556 67.1387 78.6895 66.0815 78.0663 65.2226C80.3107 64.6524 81.977 62.6238 81.9891 60.2063C81.9982 58.0624 80.702 56.2168 78.8452 55.4237C79.5355 54.3276 80.0226 53.1428 80.5178 51.9843C81.1215 50.5725 81.7277 49.1949 83.021 48.225C83.1283 48.1477 83.2237 48.0507 83.3023 47.9354C83.3434 47.8743 83.3789 47.8096 83.4071 47.7429L83.4096 47.7385L84.8896 44.2668L88.8861 45.9627C89.4745 46.2122 90.1556 45.937 90.4064 45.3484L96.9296 30.049C97.1803 29.4603 96.9067 28.7806 96.3183 28.531L65.7297 15.5634C65.1411 15.3136 64.4601 15.589 64.2092 16.1775ZM61.0277 83.6331L59.301 79.3411C58.8671 78.2671 57.6426 77.7471 56.5655 78.1827C55.4901 78.6168 54.9672 79.8428 55.401 80.9166L57.8512 87.0029C58.2831 88.0781 59.5095 88.5967 60.5849 88.1626C61.662 87.727 62.1849 86.5011 61.7511 85.4272L61.043 83.6688C61.0392 83.656 61.0334 83.6445 61.0277 83.6331ZM35.4149 50.4445C34.3708 51.1785 33.6562 52.3156 32.8222 53.6065C31.274 56.0004 29.4504 58.9192 25.5575 61.5069L28.0363 81.9514L31.8698 81.9807C31.7355 80.1168 32.8031 78.2955 34.6305 77.5569C36.2575 76.8994 38.0449 77.2801 39.2596 78.3848C39.7393 77.6067 40.4615 76.9696 41.372 76.6017C43.4668 75.7557 45.8316 76.6298 46.892 78.5593C47.3698 77.8481 48.0566 77.268 48.9091 76.9235C50.5629 76.2551 52.3819 76.6587 53.5986 77.8046C54.0774 77.033 54.7954 76.4017 55.7012 76.0356C57.9649 75.1207 60.5405 76.2132 61.4512 78.4723L62.8955 82.0611L67.1529 82.0711C68.7398 82.0737 70.0326 80.7907 70.0391 79.2065C70.039 79.16 70.0385 79.1131 70.0359 79.0673L64.5388 79.0532C63.8992 79.0518 63.3808 78.5329 63.3843 77.8934C63.3878 77.2539 63.9095 76.7361 64.5492 76.7374L70.9004 76.7525C70.9497 76.7485 70.9984 76.7477 71.0467 76.7501C72.5744 76.6895 73.8017 75.4313 73.8079 73.8891C73.8096 73.7409 73.7993 73.5961 73.7777 73.4556L65.7955 73.4373C65.1558 73.4359 64.6394 72.9156 64.6428 72.2761C64.6463 71.6366 65.1681 71.1188 65.8059 71.1215L73.8466 71.1405C74.0173 71.1397 74.1835 71.1252 74.3435 71.0986C74.3802 71.0896 74.4158 71.083 74.4524 71.0775C75.7491 70.8026 76.7269 69.6525 76.7328 68.2759C76.7414 66.6905 75.4602 65.401 73.8732 65.3982L65.905 65.3563L65.8935 65.3563L65.8839 65.3551L65.8721 65.355L65.8636 65.3553L65.8572 65.3544L65.8487 65.3547L65.8422 65.3538L65.8305 65.3536L65.8205 65.3519L65.8053 65.3511L65.7901 65.3501L65.7766 65.3475L65.7612 65.3464L65.7476 65.3438L65.7321 65.3425L65.7184 65.3398L65.7046 65.3368L65.689 65.3353L65.6856 65.3347L65.6751 65.3324L65.6717 65.3317L65.6612 65.3293L65.6577 65.3284L65.6471 65.326L65.6437 65.3253L65.633 65.3227L65.6296 65.322L65.6189 65.3194L65.6154 65.3185L65.6047 65.3159L65.6032 65.3139L65.5923 65.311L65.5888 65.3102L65.5781 65.3075L65.5745 65.3067L65.5656 65.3025L65.562 65.3016L65.5512 65.2988L65.5477 65.298L65.5385 65.2936L65.535 65.2928L65.524 65.2897L65.5205 65.2889L65.5114 65.2845L65.5078 65.2837L65.4986 65.279L65.495 65.2782L65.4839 65.275L65.4822 65.2728L65.4711 65.2696L65.4675 65.2686L65.4582 65.264L65.4547 65.2631L65.4453 65.2584L65.4417 65.2575L65.4323 65.2527L65.4286 65.2517L65.4194 65.2471L65.4176 65.2447L65.4063 65.2413L65.4045 65.2389L65.3951 65.2341L65.3913 65.2329L65.3819 65.2281L65.3782 65.2271L65.3705 65.2208L65.3669 65.2198L65.3575 65.215L65.3537 65.2138L65.346 65.2074L65.3423 65.2064L65.3327 65.2014L65.3308 65.1988L65.3212 65.1939L65.3174 65.1927L65.3097 65.1863L65.3059 65.1851L65.2964 65.1801L65.2944 65.1775L65.2848 65.1724L65.2829 65.17L65.2733 65.1648L65.2713 65.1622L65.2616 65.1571L65.2597 65.1545L65.25 65.1493L65.248 65.1467L65.24 65.14L65.2362 65.1388L65.2284 65.1322L65.2246 65.1311L65.2167 65.1243L65.2147 65.1217L65.2049 65.1164L65.2029 65.1138L65.1949 65.107L65.193 65.1045L65.1832 65.0991L65.1812 65.0965L65.1732 65.0898L65.1711 65.087L65.1632 65.0803L65.1594 65.0791L65.1514 65.0723L65.1493 65.0696L65.1413 65.0628L65.1392 65.06L65.1313 65.0533L65.1292 65.0505L65.1212 65.0438L65.1191 65.041L65.1111 65.0343L65.1091 65.0315L65.1009 65.0246L65.099 65.022L65.0909 65.0151L65.0888 65.0123L65.0807 65.0054L65.0787 65.0028L65.0725 64.9945L65.0685 64.9931L65.0623 64.9848L65.0603 64.9822L65.0522 64.9753L65.0501 64.9725L65.0438 64.9642L65.0418 64.9614L65.0336 64.9545L65.0316 64.9517L65.0253 64.9434L65.017 64.9323L65.0086 64.9212L65.0003 64.9101L64.9919 64.899L64.9836 64.8879L64.9752 64.8768L64.9667 64.8655L64.9584 64.8544L64.95 64.8433L64.9435 64.8309L64.9352 64.8198L64.9268 64.8087L64.9203 64.7962L64.9138 64.7837L64.9055 64.7726L64.899 64.7601L64.8925 64.7476L64.8861 64.7353L64.8796 64.7229L64.8731 64.7104L64.8668 64.6981L64.8621 64.6842L64.8558 64.6719L64.8494 64.6596L64.8449 64.6459L64.8386 64.6336L64.8341 64.6199L64.8321 64.6173L64.8295 64.6062L64.8276 64.6036L64.8233 64.5941L64.8232 64.5901L64.8188 64.5804L64.8187 64.5764L64.8145 64.5668L64.8144 64.5629L64.8101 64.5533L64.8082 64.5507L64.8058 64.5398L64.8056 64.5358L64.8014 64.5263L64.8014 64.5225L64.7971 64.513L64.797 64.509L64.7948 64.4983L64.7928 64.4957L64.7904 64.4847L64.7905 64.4809L64.788 64.47L64.7862 64.4676L64.784 64.4569L64.7839 64.4529L64.7816 64.4422L64.7798 64.4398L64.7775 64.429L64.7775 64.4252L64.7753 64.4145L64.7753 64.4107L64.773 64.3999L64.7712 64.3975L64.7709 64.3856L64.7691 64.3832L64.7687 64.3711L64.7669 64.3687L64.7666 64.3567L64.7648 64.3543L64.7645 64.3423L64.7629 64.3401L64.7626 64.3282L64.7626 64.3244L64.7606 64.314L64.7606 64.3102L64.7605 64.2984L64.7587 64.296L64.7586 64.2843L64.7587 64.2807L64.7567 64.2703L64.7569 64.2589L64.7569 64.2513L64.7569 64.2435L64.7551 64.2373L64.7552 64.2297L64.7553 64.2221L64.7554 64.2145L64.7554 64.203L64.7557 64.1917L64.7558 64.1803L64.7562 64.1693L64.7563 64.1579L64.7566 64.1505L64.7569 64.1433L64.7572 64.1359L64.7575 64.1286L64.7581 64.1178L64.7585 64.1068L64.7612 64.0911L64.7621 64.0769L64.7631 64.0628L64.7661 64.0475L64.7672 64.0336L64.7685 64.0199L64.7718 64.0049L64.7751 63.99L64.7767 63.9767L64.7771 63.9734L64.7802 63.9621L64.7807 63.9589L64.7838 63.9476L64.7844 63.9445L64.7856 63.9346L64.7863 63.9315L64.7895 63.9204L64.7899 63.9172L64.7933 63.9062L64.7939 63.9032L64.7973 63.8922L64.7979 63.8892L64.8013 63.8782L64.802 63.8754L64.8055 63.8646L64.8061 63.8615L64.8098 63.851L64.8104 63.8479L64.814 63.8373L64.8148 63.8345L64.8184 63.8239L64.8192 63.821L64.823 63.8106L64.8237 63.8078L64.8276 63.7976L64.8284 63.7947L64.8323 63.7845L64.8331 63.7816L64.8371 63.7716L64.8399 63.7675L64.8439 63.7575L64.8447 63.7546L64.8489 63.7448L64.8498 63.7421L64.854 63.7323L64.8549 63.7296L64.8592 63.7199L64.8619 63.7158L64.8663 63.7062L64.8672 63.7035L64.8717 63.6941L64.8745 63.6902L64.879 63.6807L64.8799 63.678L64.8845 63.6687L64.8855 63.6662L64.892 63.6555L64.893 63.653L64.8978 63.644L64.8988 63.6414L64.9056 63.6312L64.9066 63.6286L64.9115 63.6197L64.9125 63.6172L64.9194 63.6071L64.9205 63.6046L64.9255 63.5959L64.9285 63.5922L64.9335 63.5835L64.9347 63.5811L64.9399 63.5726L64.9429 63.5689L64.9482 63.5605L64.9512 63.5568L64.9566 63.5485L64.9577 63.5462L64.9651 63.5366L64.9662 63.5343L64.9718 63.5263L64.9748 63.5226L64.9804 63.5146L64.9817 63.5124L64.9892 63.5031L64.9905 63.501L64.9981 63.4917L64.9994 63.4896L65.0051 63.4818L65.0083 63.4783L65.0141 63.4707L65.0174 63.4673L65.0233 63.4597L65.0266 63.4564L65.0326 63.4489L65.0341 63.447L65.0419 63.4382L65.0434 63.4362L65.0514 63.4276L65.0528 63.4256L65.061 63.4172L65.0624 63.4152L65.0706 63.4068L65.072 63.4048L65.0784 63.398L65.0818 63.3948L65.0883 63.3879L65.0917 63.3848L65.0982 63.3779L65.1016 63.3747L65.1082 63.3681L65.1117 63.3651L65.1183 63.3584L65.1219 63.3554L65.1286 63.3489L65.132 63.3457L65.1389 63.3394L65.1424 63.3365L65.1493 63.3301L65.1529 63.3272L65.1599 63.321L65.1634 63.3181L65.1704 63.3119L65.1811 63.303L65.192 63.2943L65.2029 63.2857L65.2139 63.2772L65.2251 63.2688L65.2363 63.2606L65.2476 63.2524L65.2591 63.2446L65.2706 63.2368L65.2822 63.229L65.294 63.2215L65.3058 63.2141L65.3176 63.2066L65.3297 63.1996L65.3418 63.1925L65.354 63.1856L65.3664 63.1789L65.3788 63.1722L65.3914 63.1659L65.4039 63.1593L65.4167 63.1532L65.4297 63.1472L65.4426 63.1413L65.4555 63.1353L65.4687 63.1297L65.4819 63.1241L65.4934 63.1201L65.4977 63.118L65.5069 63.1149L65.5112 63.1128L65.5205 63.1098L65.5248 63.1078L65.5341 63.1048L65.5367 63.1043L65.5479 63.0999L65.5504 63.0995L65.5618 63.0953L65.5644 63.0948L65.5739 63.092L65.5782 63.0901L65.588 63.0877L65.5924 63.0858L65.6022 63.0834L65.6047 63.0829L65.6165 63.0793L65.6191 63.0788L65.629 63.0765L65.6335 63.0748L65.6434 63.0726L65.6461 63.0723L65.6581 63.0689L65.6607 63.0686L65.6709 63.0667L65.6755 63.065L65.6858 63.0633L65.6885 63.063L65.7007 63.0599L65.7034 63.0597L65.7138 63.0581L65.7167 63.058L65.729 63.0551L65.7318 63.055L65.7423 63.0535L65.747 63.052L65.7577 63.0509L65.7606 63.0508L65.7713 63.0496L65.776 63.0481L65.7867 63.047L65.7897 63.0471L65.8006 63.0461L65.8036 63.0462L65.8163 63.0439L65.8193 63.0439L65.8303 63.0432L65.8333 63.0433L65.8444 63.0427L65.8555 63.0419L65.8635 63.041L65.8697 63.0416L65.8779 63.0409L65.886 63.04L65.8924 63.0408L65.9006 63.0401L65.9122 63.0401L65.9185 63.0408L76.7852 63.0654C78.3702 63.0694 79.663 61.7864 79.6714 60.2009C79.6781 58.6169 78.3969 57.3274 76.8119 57.3234L58.5321 57.2807C58.5236 57.281 58.5152 57.2813 58.5067 57.2816L47.441 57.2548C47.89 61.82 47.2679 65.8994 45.7761 68.6997C43.9589 72.113 40.9183 73.789 36.8795 72.5999C35.6269 72.2316 35.1163 71.3335 35.1284 69.7721C35.1464 67.7211 36.2826 63.9391 34.4265 58.9006C34.388 58.7955 34.3639 58.6862 34.3577 58.5739C34.1631 55.523 34.5204 52.8158 35.4149 50.4445ZM53.9313 83.7619L54.959 86.3152C55.3928 87.389 54.8698 88.6149 53.7926 89.0504C52.7173 89.4846 51.491 88.966 51.0589 87.8906L48.6088 81.8045C48.1749 80.7305 48.698 79.5047 49.7732 79.0705C50.8505 78.635 52.075 79.155 52.5088 80.2289L53.9313 83.7619ZM44.9697 79.9085L47.4218 85.9934C47.8537 87.0686 47.3308 88.2945 46.2554 88.7286C45.1783 89.1643 43.9538 88.6442 43.5199 87.5702L41.0698 81.4841C40.6378 80.4087 41.159 79.1844 42.2361 78.7487C43.3115 78.3147 44.5378 78.8333 44.9697 79.9085ZM34.4467 82.7354L36.7784 88.5254C37.2123 89.5994 38.4369 90.1195 39.514 89.6838C40.5893 89.2498 41.1122 88.0238 40.6785 86.95L38.2283 80.8637C37.7964 79.7885 36.57 79.2699 35.4946 79.7039C34.4175 80.1396 33.8963 81.3639 34.3283 82.4393L34.4331 82.6981C34.4371 82.7111 34.4427 82.7225 34.4467 82.7354ZM56.8592 37.741C54.3653 38.9979 42.9986 44.7266 42.9968 44.728C38.4461 47.7107 36.3198 52.2098 36.6602 58.2582C38.3212 62.8872 37.7297 66.5251 37.5057 68.8655C37.4559 69.374 37.4227 69.8043 37.4608 70.1557C37.4729 70.2528 37.4456 70.3516 37.5381 70.3781C40.3576 71.2083 42.4626 69.9978 43.7315 67.6147C45.1849 64.8867 45.6268 60.7839 44.9857 56.2527C44.8958 55.6204 45.3385 55.0322 45.9705 54.9424C46.0697 54.9276 46.1674 54.9262 46.2621 54.9363L58.2401 54.9643C61.7401 53.108 64.7872 50.8892 66.9949 47.9869C67.3831 47.4768 68.1114 47.3761 68.6199 47.7623C69.1284 48.1488 69.2261 48.8764 68.8397 49.385C67.1895 51.5546 65.1162 53.3857 62.7448 54.9751L76.302 55.0068C77.2916 53.8224 77.8126 52.4203 78.3871 51.0779C78.9077 49.8604 79.467 48.6867 80.2876 47.675L56.8592 37.741ZM18.4127 62.821L22.1327 93.5037L7.92611 95.255L4.20799 64.5709L18.4127 62.821ZM60.2741 31.3132L65.8865 18.1474L94.3434 30.2114L88.7293 43.3786L60.2741 31.3132ZM20.7132 62.5375L23.7702 87.7613L26.3656 87.4415L25.8593 83.2592L25.8589 83.2548C25.8583 83.2501 25.8577 83.2454 25.8569 83.2405L25.8553 83.2306L23.3087 62.2178L20.7132 62.5375ZM59.3651 33.4455L58.3396 35.8511L81.7325 45.7687L82.758 43.3631L59.3651 33.4455Z" fill="#557976"/>
<path d="M14.2308 12.2311C14.2308 11.6158 13.7692 11.0004 13 11.0004H2.23077C1.61538 11.0004 1 11.4619 1 12.2311C1 13.0004 1.46154 13.4619 2.23077 13.4619H13C13.6154 13.4619 14.2308 13.0004 14.2308 12.2311Z" fill="#557976"/>
<path d="M21.9238 12.446C21.9238 11.8306 21.4623 11.2152 20.6931 11.2152H19.1546C18.5392 11.2152 17.9238 11.6768 17.9238 12.446C17.9238 13.2152 18.3854 13.6768 19.1546 13.6768H20.6931C21.3084 13.6768 21.9238 13.2152 21.9238 12.446Z" fill="#557976"/>
<path d="M50.3069 14.306H52.3069V16.306C52.3069 16.9214 52.7685 17.5368 53.5377 17.5368C54.3069 17.5368 54.7685 17.0753 54.7685 16.306V14.306H56.7685C57.3839 14.306 57.9993 13.8445 57.9993 13.0753C57.9993 12.306 57.5377 11.8445 56.7685 11.8445H54.7685V9.99835C54.7685 9.38296 54.3069 8.76758 53.5377 8.76758C52.7685 8.76758 52.3069 9.22912 52.3069 9.99835V11.9983H50.3069C49.6916 11.9983 49.0762 12.4599 49.0762 13.2291C49.0762 13.9983 49.5377 14.306 50.3069 14.306Z" fill="#557976"/>
<path d="M1.23077 45.5385H3.23077V47.5385C3.23077 48.1538 3.69231 48.7692 4.46154 48.7692C5.23077 48.7692 5.69231 48.3077 5.69231 47.5385V45.5385H7.69231C8.30769 45.5385 8.92308 45.0769 8.92308 44.3077C8.92308 43.5385 8.46154 43.0769 7.69231 43.0769H5.69231V41.2308C5.69231 40.6154 5.23077 40 4.46154 40C3.69231 40 3.23077 40.4615 3.23077 41.2308V43.2308H1.23077C0.615383 43.2308 0 43.6923 0 44.4615C0 45.2308 0.461537 45.5385 1.23077 45.5385Z" fill="#557976"/>
<path d="M92 88.8462V64.2308C92 63.6154 91.5385 63 90.7692 63C90 63 89.5385 63.4615 89.5385 64.2308V88.8462C89.5385 89.4615 90 90.0769 90.7692 90.0769C91.5385 90.0769 92 89.4615 92 88.8462Z" fill="#557976"/>
<path d="M92 98.0675V94.9905C92 94.3752 91.5385 93.7598 90.7692 93.7598C90 93.7598 89.5385 94.2213 89.5385 94.9905V98.0675C89.5385 98.6828 90 99.2982 90.7692 99.2982C91.5385 99.2982 92 98.6828 92 98.0675Z" fill="#557976"/>
</g>
<defs>
<clipPath id="clip0_61_627">
<rect width="100" height="100" fill="white"/>
</clipPath>
</defs>
</svg>
