<svg width="100" height="100" viewBox="0 0 100 100" fill="none" xmlns="http://www.w3.org/2000/svg">
<path d="M86.769 96.6152H62.1536C61.5382 96.6152 60.9229 97.0768 60.9229 97.846C60.9229 98.6152 61.3844 99.0768 62.1536 99.0768H86.769C87.3844 99.0768 87.9998 98.6152 87.9998 97.846C87.9998 97.0768 87.3844 96.6152 86.769 96.6152Z" fill="#557976"/>
<path d="M96.0001 96.6152H92.9232C92.3078 96.6152 91.6924 97.0768 91.6924 97.846C91.6924 98.6152 92.1539 99.0768 92.9232 99.0768H96.0001C96.6155 99.0768 97.2308 98.6152 97.2308 97.846C97.2308 97.0768 96.6155 96.6152 96.0001 96.6152Z" fill="#557976"/>
<path d="M28.3079 14.3069C28.9233 14.3069 29.5387 13.8454 29.5387 13.0762V2.30694C29.5387 1.69156 29.0771 1.07617 28.3079 1.07617C27.5387 1.07617 27.0771 1.53771 27.0771 2.30694V13.0762C27.0771 13.6916 27.5387 14.3069 28.3079 14.3069Z" fill="#557976"/>
<path d="M28.3079 22C28.9233 22 29.5387 21.5385 29.5387 20.7692V19.2308C29.5387 18.6154 29.0771 18 28.3079 18C27.5387 18 27.0771 18.4615 27.0771 19.2308V20.7692C27.0771 21.3846 27.5387 22 28.3079 22Z" fill="#557976"/>
<path d="M89.846 31.2294H91.846V33.2294C91.846 33.8448 92.3075 34.4602 93.0768 34.4602C93.846 34.4602 94.3075 33.9986 94.3075 33.2294V31.2294H96.3075C96.9229 31.2294 97.5383 30.7679 97.5383 29.9986C97.5383 29.2294 97.0768 28.7679 96.3075 28.7679H94.3075V26.7679C94.3075 26.1525 93.846 25.5371 93.0768 25.5371C92.3075 25.5371 91.846 25.9986 91.846 26.7679V28.7679H89.846C89.2306 28.7679 88.6152 29.2294 88.6152 29.9986C88.6152 30.7679 89.0768 31.2294 89.846 31.2294Z" fill="#557976"/>
<path d="M48.3079 14.306H50.3079V16.306C50.3079 16.9214 50.7695 17.5368 51.5387 17.5368C52.3079 17.5368 52.7695 17.0753 52.7695 16.306V14.306H54.7695C55.3848 14.306 56.0002 13.8445 56.0002 13.0753C56.0002 12.306 55.5387 11.8445 54.7695 11.8445H52.7695V9.99835C52.7695 9.38296 52.3079 8.76758 51.5387 8.76758C50.7695 8.76758 50.3079 9.22912 50.3079 9.99835V11.9983H48.3079C47.6925 11.9983 47.0771 12.4599 47.0771 13.2291C47.0771 13.9983 47.5387 14.306 48.3079 14.306Z" fill="#557976"/>
<path d="M94.7166 45.4202C94.1331 43.2318 92.8201 41.481 90.4861 40.168C88.5896 39.0008 86.1096 38.4173 83.6297 38.4173H72.5427C72.1051 38.1255 72.1051 37.9796 72.1051 37.6878C71.8133 36.2289 74.0015 33.311 75.6062 31.7061C75.7521 31.5602 75.7521 31.5602 75.7521 31.4143C83.6297 16.2414 75.7521 9.53023 75.4604 9.23845C75.4604 9.23845 75.3145 9.23845 75.3145 9.09255C73.2721 7.9254 71.5216 7.63361 69.9169 8.50898C66.4157 10.4056 65.6863 16.5332 65.5405 17.8462C64.2275 21.3477 60.2888 25.5786 57.3711 28.4965C54.7453 31.2685 52.1194 34.3322 49.9312 37.6878C47.4513 41.481 45.7007 43.9612 44.9713 44.9825C43.3666 47.025 41.4702 47.1709 41.4702 47.1709H37.8231V42.94C37.8231 42.3564 37.3855 41.7728 36.6561 41.7728H18.2751C17.6916 41.7728 17.1081 42.2105 17.1081 42.94V46.4414H6.02116C5.43764 46.4414 5 46.8791 5 47.6086C5 48.3381 5.43764 48.7757 6.02116 48.7757H17.254V81.3101H6.02116C5.43764 81.3101 5 81.7478 5 82.4773C5 83.2068 5.29176 83.3526 6.02116 83.3526H17.254V85.8328C17.254 86.4164 17.6916 87 18.421 87H36.802C37.3855 87 37.969 86.5623 37.969 85.8328V82.6232H40.7408C41.616 84.3739 43.9501 84.9575 45.4089 85.1034H84.0673H84.2132C86.839 84.6657 88.5896 83.4985 89.6108 81.6019C90.7778 79.4135 90.1943 76.7874 89.7567 75.3285C93.2578 72.7024 92.8201 68.0338 91.9449 65.2618C96.1754 61.6144 94.8625 56.3622 93.1119 53.5902C94.7166 50.6724 95.446 47.9004 94.7166 45.4202ZM35.6349 84.8116H19.4422V44.1071H35.6349V84.8116ZM91.0696 52.7149H76.0439C75.4604 52.7149 74.8768 53.1526 74.8768 53.882C74.8768 54.6115 75.3145 55.0492 76.0439 55.0492H91.2155C92.0907 56.5081 94.2789 61.0308 90.1943 64.0946H76.0439C75.4604 64.0946 74.8768 64.5323 74.8768 65.2618C74.8768 65.9912 75.3145 66.4289 76.0439 66.4289H89.7567C90.1943 68.0338 91.2155 72.2647 88.0061 74.3072H76.0439C75.4604 74.3072 74.8768 74.7449 74.8768 75.4744C74.8768 76.2038 75.3145 76.6415 76.0439 76.6415H87.5684C87.8602 77.6628 88.2978 79.5594 87.5684 81.1642C86.9849 82.3314 85.672 83.0609 83.9214 83.4985H45.5548C44.9713 83.4985 42.7831 83.0609 42.4913 81.8937C42.3454 81.3101 41.9078 81.0183 41.4702 81.0183H37.969V49.3593H41.616C41.7619 49.3593 44.6795 49.3593 46.8677 46.2955C47.5971 45.2743 49.3477 42.7941 51.9736 38.8549C54.1618 35.6453 56.4959 32.7274 59.1217 30.1013C62.3311 26.8916 66.4157 22.3689 67.8746 18.4298C67.8746 18.2839 67.8746 18.2839 67.8746 18.138C68.0204 16.3873 68.7498 11.5728 71.0839 10.4056C71.9592 9.96792 72.9804 10.1138 74.2933 10.8433C74.8768 11.4269 80.7121 17.1167 74.0015 30.2472C73.1263 31.1226 69.4792 35.0617 70.0628 37.9796C70.2086 38.7091 70.6463 39.7303 71.9592 40.3139C72.1051 40.3139 72.251 40.4598 72.3969 40.4598H83.7755C85.9638 40.4598 88.0061 40.8975 89.6108 41.9187C91.3613 42.94 92.3825 44.253 92.8201 45.8579C93.1119 47.9004 92.5284 50.0888 91.0696 52.7149Z" fill="#557976"/>
<path d="M26.3072 76.3066C23.8457 76.3066 21.8457 78.3066 21.8457 80.7682C21.8457 83.2297 23.8457 85.2297 26.3072 85.2297C28.7688 85.2297 30.7688 83.2297 30.7688 80.7682C30.7688 78.3066 28.7688 76.3066 26.3072 76.3066ZM26.3072 82.7682C25.2303 82.7682 24.1534 81.8451 24.1534 80.6143C24.1534 79.3836 25.0765 78.4605 26.3072 78.4605C27.538 78.4605 28.4611 79.3836 28.4611 80.6143C28.4611 81.8451 27.538 82.7682 26.3072 82.7682Z" fill="#557976"/>
</svg>
